<mxfile host="65bd71144e">
    <diagram id="Js_XgYYhMGEddrlFCB-S" name="Page-1">
        <mxGraphModel dx="1054" dy="442" grid="1" gridSize="10" guides="1" tooltips="1" connect="1" arrows="1" fold="1" page="1" pageScale="1" pageWidth="850" pageHeight="1100" math="0" shadow="0">
            <root>
                <mxCell id="0"/>
                <mxCell id="1" parent="0"/>
                <mxCell id="11" value="" style="rounded=0;whiteSpace=wrap;html=1;" parent="1" vertex="1">
                    <mxGeometry x="40" y="195" width="180" height="60" as="geometry"/>
                </mxCell>
                <mxCell id="2" value="" style="aspect=fixed;perimeter=ellipsePerimeter;html=1;align=center;shadow=0;dashed=0;spacingTop=3;image;image=img/lib/active_directory/cd_dvd.svg;" parent="1" vertex="1">
                    <mxGeometry x="100" y="95" width="50" height="50" as="geometry"/>
                </mxCell>
                <mxCell id="3" value="" style="aspect=fixed;perimeter=ellipsePerimeter;html=1;align=center;shadow=0;dashed=0;spacingTop=3;image;image=img/lib/active_directory/database.svg;" parent="1" vertex="1">
                    <mxGeometry x="100" y="305" width="50" height="37" as="geometry"/>
                </mxCell>
                <mxCell id="5" value="" style="endArrow=classic;html=1;exitX=0.5;exitY=1;exitDx=0;exitDy=0;entryX=0.5;entryY=0;entryDx=0;entryDy=0;" parent="1" source="2" edge="1">
                    <mxGeometry width="50" height="50" relative="1" as="geometry">
                        <mxPoint x="250" y="275" as="sourcePoint"/>
                        <mxPoint x="125" y="195" as="targetPoint"/>
                    </mxGeometry>
                </mxCell>
                <mxCell id="6" value="" style="endArrow=classic;html=1;exitX=0.5;exitY=1;exitDx=0;exitDy=0;entryX=0.5;entryY=0;entryDx=0;entryDy=0;" parent="1" target="3" edge="1">
                    <mxGeometry width="50" height="50" relative="1" as="geometry">
                        <mxPoint x="125" y="255" as="sourcePoint"/>
                        <mxPoint x="280" y="265" as="targetPoint"/>
                    </mxGeometry>
                </mxCell>
                <mxCell id="9" value="Windows Server 2022&amp;nbsp;ISO Image&lt;br&gt;&lt;font face=&quot;Cascadia Code&quot;&gt;&lt;b&gt;D:\builds\en-us_windows_server_2022_x64_dvd_620d7eac.ISO&lt;/b&gt;&lt;/font&gt;" style="text;html=1;resizable=0;autosize=1;align=center;verticalAlign=middle;points=[];fillColor=none;strokeColor=none;rounded=0;" parent="1" vertex="1">
                    <mxGeometry x="195" y="105" width="410" height="30" as="geometry"/>
                </mxCell>
                <mxCell id="10" value="New-ReferenceVHDX.ps1" style="text;html=1;resizable=0;autosize=1;align=center;verticalAlign=middle;points=[];fillColor=none;strokeColor=none;rounded=0;" parent="1" vertex="1">
                    <mxGeometry x="55" y="215" width="150" height="20" as="geometry"/>
                </mxCell>
                <mxCell id="13" value="Reference VHDX Disk Image&lt;br&gt;&lt;font face=&quot;Cascadia Code&quot;&gt;&lt;b&gt;D:\V9\Ref2022.vhdx&lt;/b&gt;&lt;/font&gt;" style="text;html=1;resizable=0;autosize=1;align=center;verticalAlign=middle;points=[];fillColor=none;strokeColor=none;rounded=0;" parent="1" vertex="1">
                    <mxGeometry x="300" y="305" width="170" height="30" as="geometry"/>
                </mxCell>
                <mxCell id="14" value="&lt;font style=&quot;font-size: 20px&quot;&gt;&lt;font color=&quot;#1c7eff&quot; style=&quot;font-size: 20px&quot;&gt;&lt;b&gt;Step &lt;/b&gt;1&lt;br&gt;&lt;/font&gt;&lt;b&gt;Crreating the reference VHDX disk image&lt;/b&gt;&lt;/font&gt;" style="text;html=1;resizable=0;autosize=1;align=center;verticalAlign=middle;points=[];fillColor=none;strokeColor=none;rounded=0;" vertex="1" parent="1">
                    <mxGeometry x="180" y="10" width="410" height="40" as="geometry"/>
                </mxCell>
            </root>
        </mxGraphModel>
    </diagram>
</mxfile>